# xmcd
#
# Track frame offsets:
#	150
#	12965
#	25782
#	37050
#	45100
#	57222
#	68442
#	80002
#	91362
#	103552
#	115065
#	131932
#	144715
#	152055
#	164232
#	175945
#	188595
#	196160
#	209297
#	216227
#	229355
#	243010
#	256690
#	268400
#	280717
#	291067
#
# Disc length: 4029 seconds
#
# Revision: 1
# Processed by: cddbd v1.5PL3 Copyright (c) Steve Scherf et al.
# Submitted via: audiograbber 1.80
#
DISCID=730fbb1a
DTITLE=prisonaires - Just Walkin' In The Rain
DYEAR=1900
DGENRE=
TTITLE0=Just Walkin' In The Rain
TTITLE1=Baby Please 
TTITLE2=Dreaming Of You 
TTITLE3=That Chick's Too Young To Fry 
TTITLE4=Just Walkin' In The Rain 
TTITLE5=Baby Please 
TTITLE6=Softly And Tenderly 
TTITLE7=My God Is Real 
TTITLE8=A Prisoner's Prayer 
TTITLE9=No More Tears 
TTITLE10=I Know 
TTITLE11=No More Tears 
TTITLE12=If I Were King 
TTITLE13=I Wish 
TTITLE14=Don't Say Tomorrow 
TTITLE15=No More Tears 
TTITLE16=What'll You Do Next 
TTITLE17=There Is Love In You 
TTITLE18=What'll You Do Next 
TTITLE19=Two Strangers 
TTITLE20=What About Frank Clement 
TTITLE21=Friends Call Me A Fool 
TTITLE22=Lucille, I Want You 
TTITLE23=Surleen 
TTITLE24=All Alone And Lonely 
TTITLE25=Rockin' Horse 
EXTD=
EXTT0=
EXTT1=
EXTT2=
EXTT3=
EXTT4=
EXTT5=
EXTT6=
EXTT7=
EXTT8=
EXTT9=
EXTT10=
EXTT11=
EXTT12=
EXTT13=
EXTT14=
EXTT15=
EXTT16=
EXTT17=
EXTT18=
EXTT19=
EXTT20=
EXTT21=
EXTT22=
EXTT23=
EXTT24=
EXTT25=
PLAYORDER=
